# Blender v2.93.1 OBJ File: ''
# www.blender.org
o Cube_Cube.001
v -1.103413 -0.741932 0.975866
v -1.338861 0.990588 1.011505
v -1.046793 -1.290294 -1.242205
v -1.338861 0.990588 -0.988495
v 1.000000 -1.000000 1.000000
v 0.855900 0.995997 1.004892
v 1.435502 -1.000003 -1.168920
v 0.937072 1.214399 -1.050192
v 0.935502 -1.000003 -1.168920
v 0.185197 -1.000001 -1.071833
v -0.519899 -1.123448 -1.102998
v -0.838861 0.990588 -0.988495
v -0.304342 1.083463 -1.011920
v 0.242311 1.208990 -1.043580
v -0.603413 -0.741932 0.975866
v -0.043977 -0.890257 0.989737
v 0.500000 -1.000000 1.000000
v 0.161139 0.990588 1.011505
v -0.338861 0.990588 1.011505
v -0.838861 0.990588 1.011505
v -1.019899 -1.123448 -0.602998
v -1.013047 -0.967442 -0.003045
v -1.043977 -0.890257 0.489737
v -1.338861 0.990588 0.511505
v -1.338861 0.990588 0.011505
v -1.338861 0.990588 -0.488495
v 1.000000 -1.000000 0.500000
v 1.185197 -1.000001 -0.071833
v 1.435502 -1.000003 -0.668920
v 0.937072 1.214399 -0.550192
v 0.937072 1.214399 -0.050192
v 0.890418 1.088873 0.481468
v 0.195658 1.083463 -0.511920
v 0.172543 1.021269 0.003766
v 0.161827 0.992439 0.511038
v -0.328620 1.018141 -0.495445
v -0.338861 0.990588 0.011505
v -0.338861 0.990588 0.511505
v -0.838861 0.990588 -0.488495
v -0.838861 0.990588 0.011505
v -0.838861 0.990588 0.511505
v -0.505903 -1.036623 -0.530556
v -0.543977 -0.890257 -0.010263
v -0.603413 -0.741932 0.475866
v 0.054943 -1.000000 -0.521311
v -0.013047 -0.967442 -0.003045
v -0.043977 -0.890257 0.489737
v 0.685197 -1.000001 -0.571833
v 0.554942 -1.000000 -0.021311
v 0.500000 -1.000000 0.500000
v -1.000000 0.000000 1.000000
v -1.000000 0.000000 -1.000000
v 1.136865 0.120612 -1.083113
v 1.000000 0.000000 1.000000
v 0.500000 0.000000 1.000000
v 0.000000 0.000000 1.000000
v -0.500000 0.000000 1.000000
v -0.500000 0.000000 -1.000000
v 0.000000 0.000000 -1.000000
v 0.554942 -0.000000 -1.021311
v 1.332111 0.258126 -0.693069
v 1.332111 0.258126 -0.193069
v 1.164427 0.051830 0.423320
v -1.000000 0.000000 0.500000
v -1.000000 0.000000 0.000000
v -1.000000 0.000000 -0.500000
vt 0.500000 0.187500
vt 0.625000 0.250000
vt 0.500000 0.250000
vt 0.500000 0.437500
vt 0.625000 0.500000
vt 0.500000 0.500000
vt 0.500000 0.687500
vt 0.625000 0.750000
vt 0.500000 0.750000
vt 0.625000 0.937500
vt 0.500000 1.000000
vt 0.500000 0.937500
vt 0.375000 0.687500
vt 0.312500 0.750000
vt 0.312500 0.687500
vt 0.875000 0.687500
vt 0.812500 0.750000
vt 0.812500 0.687500
vt 0.687500 0.687500
vt 0.625000 0.687500
vt 0.750000 0.687500
vt 0.687500 0.750000
vt 0.750000 0.750000
vt 0.125000 0.687500
vt 0.187500 0.750000
vt 0.125000 0.750000
vt 0.250000 0.687500
vt 0.187500 0.687500
vt 0.250000 0.750000
vt 0.500000 0.812500
vt 0.625000 0.812500
vt 0.500000 0.875000
vt 0.625000 0.875000
vt 0.625000 0.312500
vt 0.500000 0.312500
vt 0.625000 0.375000
vt 0.500000 0.375000
vt 0.625000 0.437500
vt 0.250000 0.500000
vt 0.312500 0.562500
vt 0.250000 0.562500
vt 0.312500 0.625000
vt 0.250000 0.625000
vt 0.187500 0.500000
vt 0.187500 0.562500
vt 0.187500 0.625000
vt 0.125000 0.562500
vt 0.125000 0.500000
vt 0.125000 0.625000
vt 0.812500 0.500000
vt 0.750000 0.562500
vt 0.750000 0.500000
vt 0.812500 0.562500
vt 0.750000 0.625000
vt 0.812500 0.625000
vt 0.687500 0.562500
vt 0.687500 0.500000
vt 0.687500 0.625000
vt 0.625000 0.562500
vt 0.625000 0.625000
vt 0.875000 0.500000
vt 0.875000 0.562500
vt 0.875000 0.625000
vt 0.312500 0.500000
vt 0.375000 0.562500
vt 0.375000 0.625000
vt 0.500000 0.562500
vt 0.500000 0.625000
vt 0.500000 0.000000
vt 0.625000 0.062500
vt 0.500000 0.062500
vt 0.625000 0.125000
vt 0.500000 0.125000
vt 0.625000 0.187500
vt 0.375000 0.125000
vt 0.375000 0.187500
vt 0.375000 0.062500
vt 0.375000 0.000000
vt 0.375000 0.500000
vt 0.375000 0.375000
vt 0.375000 0.437500
vt 0.375000 0.312500
vt 0.375000 0.250000
vt 0.375000 0.937500
vt 0.375000 0.875000
vt 0.375000 0.812500
vt 0.375000 0.750000
vt 0.375000 1.000000
vt 0.000000 0.000000
vt 0.000000 0.000000
vt 0.000000 0.000000
vt 0.625000 1.000000
vt 0.875000 0.750000
vt 0.625000 0.000000
vt 0.000000 0.000000
vn -0.9462 -0.3237 0.0000
vn -0.1077 0.0102 -0.9941
vn 0.9495 0.1360 0.2829
vn 0.0000 -0.0116 0.9999
vn 0.0000 -1.0000 0.0000
vn 0.0000 1.0000 0.0000
vn -0.1228 0.9785 0.1655
vn -0.0037 1.0000 0.0037
vn 0.0000 -0.9565 0.2918
vn -0.2563 -0.9666 0.0000
vn -0.1978 -0.9803 0.0000
vn 0.0000 -0.0049 1.0000
vn 0.0000 0.0116 -0.9999
vn 0.0000 -0.0110 -0.9999
vn -0.0384 -0.0283 -0.9989
vn -0.0554 -0.9969 0.0554
vn -0.1984 -0.9702 0.1395
vn 0.0620 -0.9870 0.1482
vn -0.1424 -0.9555 0.2584
vn -0.2538 -0.9334 0.2538
vn 0.2361 -0.9426 0.2361
vn 0.1272 -0.9603 0.2483
vn 0.3193 -0.9330 0.1662
vn -0.1651 0.9794 0.1161
vn -0.0531 0.9972 0.0531
vn -0.2075 0.9560 0.2075
vn -0.1193 0.9863 0.1136
vn -0.0590 0.9967 0.0554
vn -0.0078 1.0000 0.0000
vn -0.1739 0.9848 0.0000
vn -0.2261 0.9523 0.2050
vn 0.8556 0.1710 -0.4886
vn 0.9242 0.3818 0.0000
vn 0.9187 0.2245 0.3251
vn -0.9998 0.0171 0.0070
vn -0.9978 0.0137 -0.0648
vn -0.9894 0.0504 -0.1364
vn 0.9439 -0.1253 0.3057
vn 0.9200 -0.0703 0.3857
vn 0.9663 0.2575 0.0000
vn -0.1277 0.0971 -0.9870
vn 0.0281 0.0908 -0.9955
vn 0.1997 0.1738 -0.9643
vn -0.0275 -0.0102 0.9996
vn -0.0189 0.0000 0.9998
vn 0.0000 0.0000 1.0000
vn 0.0000 -0.0325 0.9995
vn 1.0000 0.0000 0.0000
vn 0.0000 0.0763 -0.9971
vn -0.9990 0.0298 0.0343
vn -0.0094 -0.0208 -0.9997
vn 0.9627 0.2483 0.1076
vn -0.0078 1.0000 0.0037
vn 0.3191 -0.9477 0.0000
vn 0.0096 -0.0083 0.9999
vn -0.0432 -0.0032 -0.9991
vn -0.0519 -0.0256 -0.9983
vn -0.0574 -0.9983 -0.0061
vn 0.1706 -0.9845 0.0404
vn 0.0638 -0.9954 0.0709
vn -0.1443 -0.9790 0.1443
vn 0.1449 -0.9788 0.1449
vn 0.1601 -0.9471 0.2782
vn 0.1592 -0.9387 0.3059
vn -0.0539 0.9985 0.0000
vn -0.1191 0.9857 0.1191
vn -0.0590 0.9969 0.0530
vn -0.0037 1.0000 0.0000
vn -0.1592 0.9639 0.2136
vn -0.2365 0.9658 0.1059
vn -0.1289 0.9902 0.0536
vn 0.9201 0.3555 0.1647
vn -0.9999 0.0135 0.0000
vn -0.9988 0.0493 0.0000
vn -0.9904 0.1380 0.0000
vn 0.9682 -0.0906 0.2331
vn 0.9966 0.0819 0.0000
vn 0.8832 0.0637 -0.4646
vn -0.0383 0.0645 -0.9972
vn 0.0000 0.0716 -0.9974
vn 0.0000 0.0913 -0.9958
vn 0.0000 -0.0115 0.9999
vn 0.9565 -0.1305 0.2610
vn -0.1252 0.0981 -0.9873
vn -0.9998 0.0177 0.0000
s off
f 66/1/1 4/2/1 52/3/1
f 60/4/2 8/5/2 53/6/2
f 63/7/3 6/8/3 54/9/3
f 20/10/4 51/11/4 57/12/4
f 27/13/5 17/14/5 50/15/5
f 24/16/6 20/17/6 41/18/6
f 35/19/7 6/8/7 32/20/7
f 38/21/8 18/22/8 35/19/8
f 41/18/6 19/23/6 38/21/6
f 23/24/9 15/25/9 1/26/9
f 47/27/10 15/25/10 44/28/10
f 50/15/11 16/29/11 47/27/11
f 6/8/12 55/30/12 54/9/12
f 18/31/4 56/32/4 55/30/4
f 19/33/4 57/12/4 56/32/4
f 52/3/13 12/34/13 58/35/13
f 58/35/14 13/36/14 59/37/14
f 59/37/15 14/38/15 60/4/15
f 10/39/5 48/40/5 45/41/5
f 45/41/16 49/42/16 46/43/16
f 46/43/17 50/15/17 47/27/17
f 11/44/18 45/41/18 42/45/18
f 42/45/19 46/43/19 43/46/19
f 43/46/20 47/27/20 44/28/20
f 11/44/21 21/47/21 3/48/21
f 42/45/22 22/49/22 21/47/22
f 22/49/23 44/28/23 23/24/23
f 12/50/24 36/51/24 13/52/24
f 39/53/25 37/54/25 36/51/25
f 40/55/6 38/21/6 37/54/6
f 13/52/26 33/56/26 14/57/26
f 36/51/27 34/58/27 33/56/27
f 37/54/28 35/19/28 34/58/28
f 14/57/29 30/59/29 8/5/29
f 33/56/30 31/60/30 30/59/30
f 34/58/31 32/20/31 31/60/31
f 4/61/6 39/53/6 12/50/6
f 26/62/6 40/55/6 39/53/6
f 25/63/6 41/18/6 40/55/6
f 9/64/5 29/65/5 48/40/5
f 48/40/5 28/66/5 49/42/5
f 49/42/5 27/13/5 50/15/5
f 8/5/32 61/67/32 53/6/32
f 30/59/33 62/68/33 61/67/33
f 62/68/34 32/20/34 63/7/34
f 51/69/1 24/70/1 64/71/1
f 64/71/1 25/72/1 65/73/1
f 65/73/1 26/74/1 66/1/1
f 22/75/35 66/1/35 21/76/35
f 23/77/36 65/73/36 22/75/36
f 1/78/37 64/71/37 23/77/37
f 28/66/38 63/7/38 27/13/38
f 29/65/39 62/68/39 28/66/39
f 53/6/40 29/65/40 7/79/40
f 10/80/41 60/4/41 9/81/41
f 58/35/42 10/80/42 11/82/42
f 52/3/43 11/82/43 3/83/43
f 56/32/44 15/84/44 16/85/44
f 55/30/45 16/85/45 17/86/45
f 54/9/46 17/86/46 5/87/46
f 15/84/47 51/11/47 1/88/47
f 27/13/48 54/9/48 5/87/48
f 9/81/49 53/6/49 7/79/49
f 21/76/50 52/3/50 3/83/50
f 14/89/29 30/90/29 8/91/29
f 66/1/1 26/74/1 4/2/1
f 60/4/51 14/38/51 8/5/51
f 63/7/52 32/20/52 6/8/52
f 20/10/4 2/92/4 51/11/4
f 27/13/5 5/87/5 17/14/5
f 24/16/6 2/93/6 20/17/6
f 35/19/53 18/22/53 6/8/53
f 38/21/6 19/23/6 18/22/6
f 41/18/6 20/17/6 19/23/6
f 23/24/54 44/28/54 15/25/54
f 47/27/10 16/29/10 15/25/10
f 50/15/11 17/14/11 16/29/11
f 6/8/55 18/31/55 55/30/55
f 18/31/4 19/33/4 56/32/4
f 19/33/4 20/10/4 57/12/4
f 52/3/13 4/2/13 12/34/13
f 58/35/56 12/34/56 13/36/56
f 59/37/57 13/36/57 14/38/57
f 10/39/5 9/64/5 48/40/5
f 45/41/5 48/40/5 49/42/5
f 46/43/58 49/42/58 50/15/58
f 11/44/59 10/39/59 45/41/59
f 42/45/60 45/41/60 46/43/60
f 43/46/61 46/43/61 47/27/61
f 11/44/62 42/45/62 21/47/62
f 42/45/63 43/46/63 22/49/63
f 22/49/64 43/46/64 44/28/64
f 12/50/65 39/53/65 36/51/65
f 39/53/6 40/55/6 37/54/6
f 40/55/6 41/18/6 38/21/6
f 13/52/66 36/51/66 33/56/66
f 36/51/67 37/54/67 34/58/67
f 37/54/68 38/21/68 35/19/68
f 14/57/69 33/56/69 30/59/69
f 33/56/70 34/58/70 31/60/70
f 34/58/71 35/19/71 32/20/71
f 4/61/6 26/62/6 39/53/6
f 26/62/6 25/63/6 40/55/6
f 25/63/6 24/16/6 41/18/6
f 9/64/5 7/79/5 29/65/5
f 48/40/5 29/65/5 28/66/5
f 49/42/5 28/66/5 27/13/5
f 8/5/33 30/59/33 61/67/33
f 30/59/33 31/60/33 62/68/33
f 62/68/72 31/60/72 32/20/72
f 51/69/1 2/94/1 24/70/1
f 64/71/1 24/70/1 25/72/1
f 65/73/1 25/72/1 26/74/1
f 22/75/73 65/73/73 66/1/73
f 23/77/74 64/71/74 65/73/74
f 1/78/75 51/69/75 64/71/75
f 28/66/76 62/68/76 63/7/76
f 29/65/77 61/67/77 62/68/77
f 53/6/78 61/67/78 29/65/78
f 10/80/79 59/37/79 60/4/79
f 58/35/80 59/37/80 10/80/80
f 52/3/81 58/35/81 11/82/81
f 56/32/47 57/12/47 15/84/47
f 55/30/82 56/32/82 16/85/82
f 54/9/46 55/30/46 17/86/46
f 15/84/47 57/12/47 51/11/47
f 27/13/83 63/7/83 54/9/83
f 9/81/84 60/4/84 53/6/84
f 21/76/85 66/1/85 52/3/85
f 14/89/29 31/95/29 30/90/29
